<?xml version="1.0" encoding="UTF-8"?>

<svg xmlns="http://www.w3.org/2000/svg" style="display: none;">
<symbol id="truck" viewBox="0 0 640 512">
<path d="M64 32C46.3 32 32 46.3 32 64l0 288c0 17.7 14.3 32 32 32l5.5 0c13.2-37.3 48.7-64 90.5-64s77.4 26.7 90.5 64L384 384l0-320c0-17.7-14.3-32-32-32L64 32zm0 384c-35.3 0-64-28.7-64-64L0 64C0 28.7 28.7 0 64 0L352 0c35.3 0 64 28.7 64 64l0 32 65.3 0c14 0 27.3 6.1 36.4 16.8l78.7 91.8c7.5 8.7 11.6 19.8 11.6 31.2L608 384l16 0c8.8 0 16 7.2 16 16s-7.2 16-16 16l-48 0c0 53-43 96-96 96s-96-43-96-96l-128 0c0 53-43 96-96 96s-96-43-96-96zM416 224l154.9 0-77.5-90.4c-3-3.5-7.5-5.6-12.1-5.6L416 128l0 96zm0 32l0 88.4c17-15.2 39.4-24.4 64-24.4c41.8 0 77.4 26.7 90.5 64l5.5 0 0-128-160 0zM224 416A64 64 0 1 0 96 416a64 64 0 1 0 128 0zm256 64a64 64 0 1 0 0-128 64 64 0 1 0 0 128z"/>
</symbol>
<!-- Building -->
<symbol id="building" viewBox="0 0 384 512">
<path d="M64 32C46.3 32 32 46.3 32 64l0 384c0 17.7 14.3 32 32 32l64 0 0-64c0-35.3 28.7-64 64-64s64 28.7 64 64l0 64 64 0c17.7 0 32-14.3 32-32l0-384c0-17.7-14.3-32-32-32L64 32zM224 416c0-17.7-14.3-32-32-32s-32 14.3-32 32l0 64 64 0 0-64zm-96 96l-64 0c-35.3 0-64-28.7-64-64L0 64C0 28.7 28.7 0 64 0L320 0c35.3 0 64 28.7 64 64l0 384c0 35.3-28.7 64-64 64l-64 0-32 0-64 0-32 0zM64 120c0-13.3 10.7-24 24-24l48 0c13.3 0 24 10.7 24 24l0 48c0 13.3-10.7 24-24 24l-48 0c-13.3 0-24-10.7-24-24l0-48zm32 8l0 32 32 0 0-32-32 0zM248 96l48 0c13.3 0 24 10.7 24 24l0 48c0 13.3-10.7 24-24 24l-48 0c-13.3 0-24-10.7-24-24l0-48c0-13.3 10.7-24 24-24zm8 64l32 0 0-32-32 0 0 32zM64 248c0-13.3 10.7-24 24-24l48 0c13.3 0 24 10.7 24 24l0 48c0 13.3-10.7 24-24 24l-48 0c-13.3 0-24-10.7-24-24l0-48zm32 8l0 32 32 0 0-32-32 0zm152-32l48 0c13.3 0 24 10.7 24 24l0 48c0 13.3-10.7 24-24 24l-48 0c-13.3 0-24-10.7-24-24l0-48c0-13.3 10.7-24 24-24zm8 64l32 0 0-32-32 0 0 32z"/>
</symbol>
<symbol id="clock-three" viewBox="0 0 512 512">
<path d="M480 256A224 224 0 1 1 32 256a224 224 0 1 1 448 0zM0 256a256 256 0 1 0 512 0A256 256 0 1 0 0 256zM240 112l0 144c0 8.8 7.2 16 16 16l112 0c8.8 0 16-7.2 16-16s-7.2-16-16-16l-96 0 0-128c0-8.8-7.2-16-16-16s-16 7.2-16 16z"/>
</symbol>
<symbol id="sparkles" viewBox="0 0 512 512">
<path d="M432 32c8.8 0 16 7.2 16 16l0 48 48 0c8.8 0 16 7.2 16 16s-7.2 16-16 16l-48 0 0 48c0 8.8-7.2 16-16 16s-16-7.2-16-16l0-48-48 0c-8.8 0-16-7.2-16-16s7.2-16 16-16l48 0 0-48c0-8.8 7.2-16 16-16zm0 288c8.8 0 16 7.2 16 16l0 48 48 0c8.8 0 16 7.2 16 16s-7.2 16-16 16l-48 0 0 48c0 8.8-7.2 16-16 16s-16-7.2-16-16l0-48-48 0c-8.8 0-16-7.2-16-16s7.2-16 16-16l48 0 0-48c0-8.8 7.2-16 16-16zM136.8 216.4L54.2 254.6l82.6 38.1c6.9 3.2 12.4 8.7 15.6 15.6l38.1 82.6 38.1-82.6c3.2-6.9 8.7-12.4 15.6-15.6l82.6-38.1-82.6-38.1c-6.9-3.2-12.4-8.7-15.6-15.6l-38.1-82.6-38.1 82.6c-3.2 6.9-8.7 12.4-15.6 15.6zM123.4 321.8L9.3 269.1C3.6 266.5 0 260.8 0 254.6s3.6-11.9 9.3-14.5l114.1-52.7L176 73.3c2.6-5.7 8.3-9.3 14.5-9.3s11.9 3.6 14.5 9.3l52.7 114.1L371.8 240c5.7 2.6 9.3 8.3 9.3 14.5s-3.6 11.9-9.3 14.5L257.8 321.8 205.1 435.8c-2.6 5.7-8.3 9.3-14.5 9.3s-11.9-3.6-14.5-9.3L123.4 321.8z"/>
</symbol>
<symbol id="flask" viewBox="0 0 448 512">
<path d="M288 196.8L288 32 160 32l0 164.8c0 17.8-4.9 35.2-14.2 50.3L100.9 320l246.2 0-44.8-72.9C292.9 232 288 214.6 288 196.8zM128 32l-16 0c-8.8 0-16-7.2-16-16s7.2-16 16-16l48 0L288 0l48 0c8.8 0 16 7.2 16 16s-7.2 16-16 16l-16 0 0 164.8c0 11.8 3.3 23.5 9.5 33.5L437.7 406.2c6.7 10.9 10.3 23.5 10.3 36.4c0 38.3-31.1 69.4-69.4 69.4L69.4 512C31.1 512 0 480.9 0 442.6c0-12.8 3.6-25.4 10.3-36.4L118.5 230.4c6.2-10.1 9.5-21.7 9.5-33.5L128 32zM37.5 423c-3.6 5.9-5.5 12.7-5.5 19.6C32 463.3 48.7 480 69.4 480l309.2 0c20.7 0 37.4-16.7 37.4-37.4c0-6.9-1.9-13.7-5.5-19.6l-43.7-71L81.2 352 37.5 423z"/>
</symbol>
<symbol id="relaxed" viewBox="0 0 512 512">
<path d="M480 256A224 224 0 1 0 32 256a224 224 0 1 0 448 0zM0 256a256 256 0 1 1 512 0A256 256 0 1 1 0 256zm164.1 69.5C182 346.2 212.6 368 256 368s74-21.8 91.9-42.5c5.8-6.7 15.9-7.4 22.6-1.6s7.4 15.9 1.6 22.6C349.8 372.1 311.1 400 256 400s-93.8-27.9-116.1-53.5c-5.8-6.7-5.1-16.8 1.6-22.6s16.8-5.1 22.6 1.6zm47.1-91.9c-17.6-23.5-52.8-23.5-70.4 0c-5.3 7.1-15.3 8.5-22.4 3.2s-8.5-15.3-3.2-22.4c30.4-40.5 91.2-40.5 121.6 0c5.3 7.1 3.9 17.1-3.2 22.4s-17.1 3.9-22.4-3.2zm89.6 0c-5.3 7.1-15.3 8.5-22.4 3.2s-8.5-15.3-3.2-22.4c30.4-40.5 91.2-40.5 121.6 0c5.3 7.1 3.9 17.1-3.2 22.4s-17.1 3.9-22.4-3.2c-17.6-23.5-52.8-23.5-70.4 0z"/>
</symbol>
<symbol id="heart" viewBox="0 0 512 512">
<path d="M244 130.6l-12-13.5-4.2-4.7c-26-29.2-65.3-42.8-103.8-35.8c-53.3 9.7-92 56.1-92 110.3l0 3.5c0 32.3 13.4 63.1 37.1 85.1L253 446.8c.8 .7 1.9 1.2 3 1.2s2.2-.4 3-1.2L443 275.5c23.6-22 37-52.8 37-85.1l0-3.5c0-54.2-38.7-100.6-92-110.3c-38.5-7-77.8 6.6-103.8 35.8l-4.2 4.7-12 13.5c-3 3.4-7.4 5.4-12 5.4s-8.9-2-12-5.4zm34.9-57.1C311 48.4 352.7 37.7 393.7 45.1C462.2 57.6 512 117.3 512 186.9l0 3.5c0 36-13.1 70.6-36.6 97.5c-3.4 3.8-6.9 7.5-10.7 11l-184 171.3c-.8 .8-1.7 1.5-2.6 2.2c-6.3 4.9-14.1 7.5-22.1 7.5c-9.2 0-18-3.5-24.8-9.7L47.2 299c-3.8-3.5-7.3-7.2-10.7-11C13.1 261 0 226.4 0 190.4l0-3.5C0 117.3 49.8 57.6 118.3 45.1c40.9-7.4 82.6 3.2 114.7 28.4c6.7 5.3 13 11.1 18.7 17.6l4.2 4.7 4.2-4.7c4.2-4.7 8.6-9.1 13.3-13.1c1.8-1.5 3.6-3 5.4-4.5z"/>
</symbol>
</svg>
